<svg width="170" height="170" viewBox="0 0 170 170" fill="none" xmlns="http://www.w3.org/2000/svg">
<g filter="url(#filter0_f_446_6641)">
<path d="M50 85L80 110L120 60M85 155C75.8075 155 66.705 153.189 58.2122 149.672C49.7194 146.154 42.0026 140.998 35.5025 134.497C29.0024 127.997 23.8463 120.281 20.3284 111.788C16.8106 103.295 15 94.1925 15 85C15 75.8075 16.8106 66.705 20.3284 58.2122C23.8463 49.7194 29.0024 42.0026 35.5025 35.5025C42.0026 29.0024 49.7194 23.8463 58.2122 20.3284C66.705 16.8106 75.8075 15 85 15C103.565 15 121.37 22.375 134.497 35.5025C147.625 48.6301 155 66.4349 155 85C155 103.565 147.625 121.37 134.497 134.497C121.37 147.625 103.565 155 85 155Z" stroke="#FF00FF" stroke-width="5" stroke-linecap="round"/>
</g>
<path d="M50 85L80 110L120 60M85 155C75.8075 155 66.705 153.189 58.2122 149.672C49.7194 146.154 42.0026 140.998 35.5025 134.497C29.0024 127.997 23.8463 120.281 20.3284 111.788C16.8106 103.295 15 94.1925 15 85C15 75.8075 16.8106 66.705 20.3284 58.2122C23.8463 49.7194 29.0024 42.0026 35.5025 35.5025C42.0026 29.0024 49.7194 23.8463 58.2122 20.3284C66.705 16.8106 75.8075 15 85 15C103.565 15 121.37 22.375 134.497 35.5025C147.625 48.6301 155 66.4349 155 85C155 103.565 147.625 121.37 134.497 134.497C121.37 147.625 103.565 155 85 155Z" stroke="white" stroke-width="3" stroke-linecap="round"/>
<defs>
<filter id="filter0_f_446_6641" x="-2" y="-2" width="174" height="174" filterUnits="userSpaceOnUse" color-interpolation-filters="sRGB">
<feFlood flood-opacity="0" result="BackgroundImageFix"/>
<feBlend mode="normal" in="SourceGraphic" in2="BackgroundImageFix" result="shape"/>
<feGaussianBlur stdDeviation="6" result="effect1_foregroundBlur_446_6641"/>
</filter>
</defs>
</svg>
