<svg width="28" height="21" viewBox="0 0 28 21" fill="none" xmlns="http://www.w3.org/2000/svg">
<path d="M23.0872 1.66256C21.4247 0.887557 19.6247 0.325057 17.7497 5.74977e-05C17.7332 -0.000468256 17.7169 0.00261685 17.7017 0.00909595C17.6866 0.015575 17.6731 0.0252908 17.6622 0.0375578C17.4372 0.450058 17.1747 0.987557 16.9997 1.40006C15.0109 1.10006 12.9884 1.10006 10.9997 1.40006C10.8247 0.975057 10.5622 0.450058 10.3247 0.0375578C10.3122 0.0125578 10.2747 5.74977e-05 10.2372 5.74977e-05C8.36216 0.325057 6.57466 0.887557 4.89966 1.66256C4.88716 1.66256 4.87466 1.67506 4.86216 1.68756C1.46216 6.77506 0.524658 11.7251 0.987158 16.6251C0.987158 16.6501 0.999658 16.6751 1.02466 16.6876C3.27466 18.3376 5.43716 19.3376 7.57466 20.0001C7.61216 20.0126 7.64966 20.0001 7.66216 19.9751C8.16216 19.2876 8.61216 18.5626 8.99966 17.8001C9.02466 17.7501 8.99966 17.7001 8.94966 17.6876C8.23716 17.4126 7.56216 17.0876 6.89966 16.7126C6.84966 16.6876 6.84966 16.6126 6.88716 16.5751C7.02466 16.4751 7.16216 16.3626 7.29966 16.2626C7.32466 16.2376 7.36216 16.2376 7.38716 16.2501C11.6872 18.2126 16.3247 18.2126 20.5747 16.2501C20.5997 16.2376 20.6372 16.2376 20.6622 16.2626C20.7997 16.3751 20.9372 16.4751 21.0747 16.5876C21.1247 16.6251 21.1247 16.7001 21.0622 16.7251C20.4122 17.1126 19.7247 17.4251 19.0122 17.7001C18.9622 17.7126 18.9497 17.7751 18.9622 17.8126C19.3622 18.5751 19.8122 19.3001 20.2997 19.9876C20.3372 20.0001 20.3747 20.0126 20.4122 20.0001C22.5622 19.3376 24.7247 18.3376 26.9747 16.6876C26.9997 16.6751 27.0122 16.6501 27.0122 16.6251C27.5622 10.9626 26.0997 6.05006 23.1372 1.68756C23.1247 1.67506 23.1122 1.66256 23.0872 1.66256ZM9.64966 13.6376C8.36216 13.6376 7.28716 12.4501 7.28716 10.9876C7.28716 9.52506 8.33716 8.33756 9.64966 8.33756C10.9747 8.33756 12.0247 9.53756 12.0122 10.9876C12.0122 12.4501 10.9622 13.6376 9.64966 13.6376ZM18.3622 13.6376C17.0747 13.6376 15.9997 12.4501 15.9997 10.9876C15.9997 9.52506 17.0497 8.33756 18.3622 8.33756C19.6872 8.33756 20.7372 9.53756 20.7247 10.9876C20.7247 12.4501 19.6872 13.6376 18.3622 13.6376Z" fill="black"/>
</svg>
