<svg width="28" height="20" viewBox="0 0 28 20" fill="none" xmlns="http://www.w3.org/2000/svg">
<path d="M26.5718 3.68125C26.4225 3.12629 26.1299 2.62029 25.7236 2.21391C25.3172 1.80752 24.8112 1.515 24.2562 1.36563C22.2125 0.8125 14 0.8125 14 0.8125C14 0.8125 5.78747 0.8125 3.74372 1.36563C3.18876 1.515 2.68277 1.80752 2.27638 2.21391C1.87 2.62029 1.57748 3.12629 1.4281 3.68125C1.04648 5.76556 0.861298 7.88109 0.874973 10C0.861298 12.1189 1.04648 14.2344 1.4281 16.3188C1.57748 16.8737 1.87 17.3797 2.27638 17.7861C2.68277 18.1925 3.18876 18.485 3.74372 18.6344C5.78747 19.1875 14 19.1875 14 19.1875C14 19.1875 22.2125 19.1875 24.2562 18.6344C24.8112 18.485 25.3172 18.1925 25.7236 17.7861C26.1299 17.3797 26.4225 16.8737 26.5718 16.3188C26.9535 14.2344 27.1386 12.1189 27.125 10C27.1386 7.88109 26.9535 5.76556 26.5718 3.68125ZM11.375 13.9375V6.0625L18.1906 10L11.375 13.9375Z" fill="#E3E3E3"/>
</svg>
