<svg width="28" height="20" viewBox="0 0 28 20" fill="none" xmlns="http://www.w3.org/2000/svg">
<path d="M26.5716 3.68125C26.4222 3.12629 26.1297 2.62029 25.7233 2.21391C25.3169 1.80752 24.8109 1.515 24.256 1.36563C22.2122 0.8125 13.9997 0.8125 13.9997 0.8125C13.9997 0.8125 5.78723 0.8125 3.74348 1.36563C3.18852 1.515 2.68252 1.80752 2.27614 2.21391C1.86975 2.62029 1.57723 3.12629 1.42785 3.68125C1.04624 5.76556 0.861054 7.88109 0.874729 10C0.861054 12.1189 1.04624 14.2344 1.42785 16.3188C1.57723 16.8737 1.86975 17.3797 2.27614 17.7861C2.68252 18.1925 3.18852 18.485 3.74348 18.6344C5.78723 19.1875 13.9997 19.1875 13.9997 19.1875C13.9997 19.1875 22.2122 19.1875 24.256 18.6344C24.8109 18.485 25.3169 18.1925 25.7233 17.7861C26.1297 17.3797 26.4222 16.8737 26.5716 16.3188C26.9532 14.2344 27.1384 12.1189 27.1247 10C27.1384 7.88109 26.9532 5.76556 26.5716 3.68125ZM11.3747 13.9375V6.0625L18.1904 10L11.3747 13.9375Z" fill="black"/>
</svg>
